<?xml version="1.0" encoding="utf-8"?>
<!-- Generator: Adobe Illustrator 26.0.3, SVG Export Plug-In . SVG Version: 6.00 Build 0)  -->
<svg version="1.1" id="Layer_1" xmlns="http://www.w3.org/2000/svg" xmlns:xlink="http://www.w3.org/1999/xlink" x="0px" y="0px"
	 viewBox="0 0 572.99 175.47" style="enable-background:new 0 0 572.99 175.47;" xml:space="preserve">
<style type="text/css">
	.st0{fill:#FFB100;}
	.st1{fill:#231F20;}
</style>
<g>
	<g>
		<rect x="88.54" y="95.4" class="st0" width="11.18" height="11.18"/>
		<rect x="103.94" y="95.4" class="st0" width="11.18" height="11.18"/>
		<rect x="88.54" y="110.43" class="st0" width="11.18" height="11.18"/>
		<rect x="103.94" y="110.43" class="st0" width="11.18" height="11.18"/>
		<path class="st0" d="M68.44,41.65V29.94c0-2.68-2.17-4.85-4.85-4.85H46.77c-2.68,0-4.85,2.17-4.85,4.85v21.42
			c0,3.73,4.04,6.07,7.28,4.2l16.82-9.71C67.51,44.99,68.44,43.39,68.44,41.65z"/>
		<path class="st0" d="M161.76,51.41V29.94c0-2.68-2.17-4.85-4.85-4.85h-16.82c-2.68,0-4.85,2.17-4.85,4.85V41.7
			c0,1.73,0.92,3.33,2.42,4.2l16.82,9.71C157.71,57.48,161.76,55.14,161.76,51.41z"/>
		<path class="st0" d="M135.23,17.27v21.47c0,2.68,2.17,4.85,4.85,4.85h16.82c2.68,0,4.85-2.17,4.85-4.85V26.98
			c0-1.73-0.92-3.33-2.42-4.2l-16.82-9.71C139.28,11.2,135.23,13.53,135.23,17.27z"/>
		<path class="st0" d="M41.91,17.27v21.47c0,2.68,2.17,4.85,4.85,4.85h16.82c2.68,0,4.85-2.17,4.85-4.85V26.98
			c0-1.73-0.92-3.33-2.42-4.2l-16.82-9.71C45.96,11.2,41.91,13.53,41.91,17.27z"/>
		<path class="st0" d="M41.91,72.41v58.76c0,5.89-2.95,8.84-8.84,8.84v17.68h17.68c11.79,0,17.68-5.89,17.68-17.68V57.1L41.91,72.41
			z"/>
		<path class="st0" d="M135.23,57.15v74.03c0,5.89-2.95,8.84-8.84,8.84v17.68h17.68c11.79,0,17.68-5.89,17.68-17.68V72.46
			L135.23,57.15z"/>
		<path class="st0" d="M155.1,83.93c3.66-6.34,1.49-14.45-4.85-18.11l-48.43-27.94l0,0.01l-0.03-0.05l-48.4,27.94
			c-6.34,3.66-8.51,11.76-4.85,18.1l0.01,0.01c3.66,6.34,11.76,8.51,18.1,4.85l28.52-16.47c4.1-2.37,9.15-2.37,13.25,0l28.59,16.49
			C143.34,92.43,151.44,90.26,155.1,83.93L155.1,83.93z"/>
	</g>
	<g>
		<g>
			<path class="st1" d="M236.84,127.07c-4.77-2.66-8.46-6.51-11.08-11.53c-2.62-5.03-3.93-11.02-3.93-17.99v-0.12
				c0-6.93,1.33-12.88,3.99-17.87c2.66-4.99,6.38-8.82,11.14-11.5c4.77-2.68,10.35-4.02,16.76-4.02c6.45,0,12.06,1.33,16.85,3.99
				c4.78,2.66,8.5,6.49,11.14,11.47c2.64,4.99,3.96,10.96,3.96,17.93v0.12c0,7.01-1.31,13.01-3.93,18.02
				c-2.62,5.01-6.32,8.84-11.08,11.5c-4.77,2.66-10.39,3.99-16.88,3.99C247.25,131.06,241.61,129.73,236.84,127.07z M261.23,114.99
				c2.08-1.54,3.69-3.78,4.84-6.73c1.14-2.94,1.71-6.52,1.71-10.72v-0.12c0-4.12-0.58-7.66-1.74-10.6c-1.16-2.94-2.79-5.19-4.9-6.73
				c-2.1-1.54-4.58-2.31-7.42-2.31c-2.8,0-5.26,0.78-7.36,2.34c-2.1,1.56-3.73,3.81-4.9,6.73c-1.16,2.92-1.74,6.45-1.74,10.57v0.12
				c0,4.2,0.57,7.78,1.71,10.72c1.14,2.94,2.77,5.19,4.9,6.73c2.12,1.54,4.63,2.31,7.51,2.31
				C256.68,117.31,259.15,116.54,261.23,114.99z"/>
			<path class="st1" d="M294.69,65.35h17.54v11.23h0.36c0.96-3.96,2.7-7.05,5.23-9.25c2.52-2.2,5.67-3.3,9.43-3.3
				c0.96,0,1.88,0.06,2.76,0.18s1.64,0.28,2.28,0.48v15.5c-0.72-0.32-1.64-0.57-2.76-0.75c-1.12-0.18-2.32-0.27-3.6-0.27
				c-2.88,0-5.35,0.56-7.39,1.68c-2.04,1.12-3.6,2.76-4.69,4.93c-1.08,2.16-1.62,4.81-1.62,7.93v36.04h-17.54V65.35z"/>
			<path class="st1" d="M339.98,43.06h17.6v86.68h-17.6V43.06z M355.42,91.12h2.52l21.75-25.77h19.88l-29.73,33.88h-3.9
				l-10.51,11.59V91.12z M360.64,101.33l11.11-13.4l29.01,41.81h-20.24L360.64,101.33z"/>
			<path class="st1" d="M415.49,128.15c-3.32-1.94-5.85-4.71-7.57-8.32c-1.72-3.6-2.58-7.91-2.58-12.92V65.35h17.54v37.9
				c0,4.2,0.99,7.47,2.97,9.79c1.98,2.32,4.93,3.48,8.86,3.48c2.64,0,4.92-0.6,6.82-1.8c1.9-1.2,3.38-2.87,4.45-5.02
				c1.06-2.14,1.59-4.59,1.59-7.36v-37h17.54v64.39h-17.54v-10.63h-0.42c-1.64,3.72-4.1,6.65-7.39,8.77
				c-3.28,2.12-7.37,3.18-12.25,3.18C422.81,131.06,418.81,130.09,415.49,128.15z"/>
			<path class="st1" d="M476.52,65.35h17.54v10.57h0.36c1.68-3.68,4.16-6.59,7.45-8.71c3.28-2.12,7.35-3.18,12.19-3.18
				c7.09,0,12.56,2.13,16.43,6.4c3.86,4.27,5.8,10.18,5.8,17.75v41.57h-17.54v-37.9c0-4.2-0.99-7.47-2.97-9.79
				c-1.98-2.32-4.94-3.48-8.86-3.48c-2.6,0-4.87,0.6-6.79,1.8c-1.92,1.2-3.41,2.86-4.47,4.99c-1.06,2.12-1.59,4.59-1.59,7.39v37
				h-17.54V65.35z"/>
		</g>
	</g>
</g>
</svg>
